<svg xmlns="http://www.w3.org/2000/svg" viewBox="0 0 190 51.11">
  <g style="isolation: isolate">
    <g id="Capa_1" data-name="Capa 1">
      <g>
        <g>
          <path d="M37,27.62c.86-1.08,1.44-1.8,2.23-1.8a.94.94,0,0,1,1,1c0,.65-.29,1.09-1.15,2.09-2.24,2.89-8.22,10.23-12,10.23-1.95,0-3.17-1.37-3.17-3.81,0-3,1.58-8.07,1.58-8.58s-.14-.93-.72-.93c-2.31,0-8.21,7.7-9.29,10.51-.72,1.66-1.3,2.74-1.95,2.74a2.13,2.13,0,0,1-1.8-1.73c0-.86,3.24-9.07,3.24-11.24A1.09,1.09,0,0,0,13.76,25c-.86,0-4.61,2.81-7.13,6.41a42.8,42.8,0,0,0-3.32,6c-.64,1.37-.72,2.6-1.8,2.6A1.64,1.64,0,0,1,0,38.35c0-1,3.24-9.58,5.48-16.5.5-1.58,1.29-2.37,1.87-2.37.86,0,1.73.28,1.73,1.37S7,26.9,6.7,27.91c2.23-3.1,6.05-6,8-6,1.29,0,3.45.72,3.45,2.59a29.08,29.08,0,0,1-.57,4.32c2.38-3.31,6.27-6.12,8.57-6.12a2.66,2.66,0,0,1,2.59,2.52c0,1.51-1.94,6.63-1.94,9.44,0,1,.22,1.58,1.08,1.58C30.26,36.26,34.36,31.08,37,27.62Z" fill="#929497"/>
          <path d="M53.31,27.62c.86-1.08,1.51-1.8,2.23-1.8a.91.91,0,0,1,1,1c0,.65-.29,1.09-1.08,2.09C52,33,46.11,39.43,38.11,39.43a4.75,4.75,0,0,1-4.32-4.61c0-.72-.22-.94-.22-1.66a2.16,2.16,0,0,1,1.23-1.72c3-6.85,7.78-9.59,11.45-9.59,1.37,0,3,1.16,3,2.53,0,3.67-6.26,7.85-10.73,8.86-1.3.28-1.37.72-1.37,1.44a2.08,2.08,0,0,0,2.16,2.16C45.6,36.84,50.72,31.08,53.31,27.62ZM38,31c2.52-.07,8.21-4.1,8.21-5.62,0-.57-.29-.72-.86-.72C43.15,24.66,39.12,29.27,38,31Z" fill="#929497"/>
          <path d="M58.14,22.65c0,.86-1,2.73-1,3.38,0,.15,0,.22.14.22s.51-.22.87-.58c2.66-2.81,4.75-4.39,6.55-4.39a2.43,2.43,0,0,1,2.59,2.52c0,2.23-.72,4.32-2.52,4.32a1.42,1.42,0,0,1-1.37-1.37,14.42,14.42,0,0,1,.51-1.94c0-.29-.22-.51-.65-.51-1,0-5.76,4.61-8.07,8.22-1.65,2.59-3,6.77-3.6,6.77a2,2,0,0,1-1.66-1.66c0-.79,1.16-3.89,2.24-6.55a62.62,62.62,0,0,0,2.59-6.92c.5-1.73,1-2.59,2-2.59A1.29,1.29,0,0,1,58.14,22.65Z" fill="#929497"/>
          <path d="M82.49,27.62c.86-1.08,1.44-1.8,2.23-1.8a.94.94,0,0,1,1,1c0,.65-.29,1.09-1.15,2.09C81.19,33,74.2,39.22,68,39.22a4.25,4.25,0,0,1-4.18-4.4c0-4.68,6.7-12.89,12.39-12.89a3.53,3.53,0,0,1,3.24,2.88,4.31,4.31,0,0,1-3.53,4c-.5,0-1-.14-1-1.22s1.66-1.16,1.66-2.24c0-.29-.22-.57-.72-.57-3,0-8.72,5.61-8.72,9.72,0,1.08.51,2.16,1.73,2.16C73.7,36.62,79.89,31.08,82.49,27.62Z" fill="#929497"/>
          <path d="M94.81,38.57c-1.73,0-3.39-.94-3.39-3.6,0-.8.22-1.95.22-2.53,0-.28-.08-.36-.22-.36-.36,0-1.37,1.16-3,2.6-3.32,3-5.77,4.61-7.42,4.61a2.8,2.8,0,0,1-2.16-2.81c0-7.35,7.85-14.55,13.76-14.55,1.72,0,2.3,1.65,2.88,1.65s.93-1.51,2.16-1.51,1.94.65,1.94,1.51S97.76,27,96.25,29.85a10.62,10.62,0,0,0-1.44,4.4c0,.93.43,1.44,1.08,1.44a4.68,4.68,0,0,0,3.24-1.59c.94-.86,1.66-1.8,2.38-1.8s1,.36,1,.94-.14,1.15-1.08,2.09A9.26,9.26,0,0,1,94.81,38.57ZM82.2,35a.92.92,0,0,0,.86.86c1.23,0,10.52-8.14,10.52-9.37,0-.36-1.22-.14-1.22-.93,0-.43-.15-.87-.72-.87C88.47,24.66,82.2,31.44,82.2,35Z" fill="#929497"/>
        </g>
        <g>
          <path d="M163.4,30.53H188a1.72,1.72,0,1,0,0-3.42H163.4a1.72,1.72,0,1,0,0,3.42Z" fill="#f15a24"/>
          <path d="M168.58,35.8h17.34a1.72,1.72,0,1,0,0-3.42H168.58a1.72,1.72,0,1,0,0,3.42Z" fill="#f15a24"/>
          <g style="mix-blend-mode: multiply">
            <path d="M159.78,25.52l28,5A1.93,1.93,0,0,0,190,29.1a1.74,1.74,0,0,0-1.58-2l-27.95-5a1.93,1.93,0,0,0-2.24,1.4A1.74,1.74,0,0,0,159.78,25.52Z" fill="#f15a24"/>
          </g>
          <g style="mix-blend-mode: multiply">
            <path d="M163.08,30.51l22.51,5.27a1.93,1.93,0,0,0,2.23-1.4,1.74,1.74,0,0,0-1.58-2l-22.51-5.27a1.93,1.93,0,0,0-2.23,1.4A1.74,1.74,0,0,0,163.08,30.51Z" fill="#f15a24"/>
          </g>
          <circle cx="171.6" cy="38.42" r="1.69" fill="#f15a24"/>
          <circle cx="183.64" cy="38.42" r="1.69" fill="#f15a24"/>
        </g>
        <g>
          <path d="M102.39,23h1.78a107,107,0,0,1,6.4-12.67C114,4.46,119.24,0,122,0c2.07,0,3.85,1.09,3.85,2.3,0,1.42-1,2.63-1.87,2.63-.64,0-1.14-.36-1.14-.93s-.14-1-.92-1c-1.57,0-4.86,2.27-8.31,8a113.23,113.23,0,0,0-6.25,12l7.92,0a1.17,1.17,0,0,1,1.2,1.14,1,1,0,0,1-1,1c-3.14,0-6.63.26-9.34.46-3.24,7.19-6.35,16.73-6.37,21.72,0,1.21.28,1.22.28,2.5a1.54,1.54,0,0,1-1.44,1.28c-.71,0-1.63-.72-1.62-2.72,0-5.7,3.13-16.17,5.87-22.51-1.72,0-2.22,0-2.21-.87A1.88,1.88,0,0,1,102.39,23Z" fill="#f15a24"/>
          <path d="M116.94,22.8c0,.86-1,2.71-1,3.35,0,.14,0,.21.14.21s.5-.21.85-.57c2.66-2.77,4.73-4.33,6.51-4.32A2.41,2.41,0,0,1,126,24c0,2.21-.73,4.27-2.51,4.27a1.4,1.4,0,0,1-1.35-1.36,14.44,14.44,0,0,1,.5-1.93c0-.28-.21-.5-.64-.5-1,0-5.72,4.54-8,8.1-1.65,2.56-3,6.69-3.59,6.69a2,2,0,0,1-1.63-1.65c0-.78,1.15-3.85,2.23-6.48a59.57,59.57,0,0,0,2.6-6.84c.51-1.71,1-2.56,2-2.56A1.29,1.29,0,0,1,116.94,22.8Z" fill="#f15a24"/>
          <path d="M143.59,27.83c.86-1.07,1.5-1.78,2.22-1.77a.9.9,0,0,1,1,1c0,.64-.29,1.07-1.08,2.06-3.44,4.05-9.31,10.38-17.23,10.34a4.71,4.71,0,0,1-4.26-4.58c0-.71-.21-.93-.21-1.64a2.19,2.19,0,0,1,1.22-1.71c3-6.76,7.75-9.45,11.38-9.43,1.36,0,2.92,1.15,2.92,2.5,0,3.64-6.24,7.75-10.67,8.73-1.28.28-1.35.71-1.36,1.42a2.07,2.07,0,0,0,2.13,2.15C135.92,36.93,141,31.24,143.59,27.83Zm-15.13,3.29c2.49-.06,8.14-4,8.15-5.53,0-.57-.28-.71-.86-.72C133.54,24.86,129.53,29.41,128.46,31.12Z" fill="#f15a24"/>
          <path d="M151,34.56c1.14-.85,1.64-1.56,2.43-1.55a.93.93,0,0,1,1,1c0,.64-.43,1.14-1.43,1.92-2.15,1.63-4.58,3.54-7.86,3.53-2.21,0-4.7-2.23-4.69-4.51,0-.71-.21-.93-.21-1.64a2.17,2.17,0,0,1,1.22-1.71c2.95-6.76,7.74-9.45,11.38-9.44,1.35,0,2.92,1.16,2.91,2.51,0,3.64-6.23,7.75-10.66,8.73-1.28.28-1.36.71-1.36,1.42A2.07,2.07,0,0,0,145.83,37C147.83,37,149.69,35.56,151,34.56Zm-6.34-3.37c2.5-.06,8.15-4,8.16-5.53,0-.57-.29-.72-.86-.72C149.73,24.93,145.72,29.48,144.64,31.19Z" fill="#f15a24"/>
        </g>
        <path d="M157.14,13.83a3.09,3.09,0,1,1-3.1,3.08A3.1,3.1,0,0,1,157.14,13.83Zm0,5.42a2.34,2.34,0,0,0,0-4.68,2.34,2.34,0,1,0,0,4.68Zm-1.25-3.95a.19.19,0,0,1,.14-.17,7.53,7.53,0,0,1,.92-.07,2,2,0,0,1,1.16.29.9.9,0,0,1,.35.74,1,1,0,0,1-.49.84,1,1,0,0,1,.33.58c.12.41.23.78.27.87a.15.15,0,0,1-.15.2h-.49s-.11,0-.11-.08a4,4,0,0,1-.29-.79.57.57,0,0,0-.58-.51h-.29v1.21c0,.11,0,.17-.14.17h-.47a.16.16,0,0,1-.16-.17Zm.77,1.28H157c.42,0,.67-.18.67-.43s-.27-.44-.69-.44a1.56,1.56,0,0,0-.31,0Z" fill="#f15a24"/>
      </g>
    </g>
  </g>
</svg>
